<?xml version="1.0" standalone="no"?>
<!DOCTYPE svg PUBLIC "-//W3C//DTD SVG 20010904//EN"
 "http://www.w3.org/TR/2001/REC-SVG-20010904/DTD/svg10.dtd">
<svg version="1.0" xmlns="http://www.w3.org/2000/svg"
 width="198.000000pt" height="198.000000pt" viewBox="0 0 198.000000 198.000000"
 preserveAspectRatio="xMidYMid meet">
<metadata>
Created by potrace 1.11, written by Peter Selinger 2001-2013
</metadata>
<g transform="translate(0.000000,198.000000) scale(0.100000,-0.100000)"
fill="#000000" stroke="none">
<path d="M460 1005 l0 -725 155 0 155 0 0 218 0 217 113 113 113 112 125 -212
c70 -117 157 -266 195 -331 l68 -117 199 0 199 0 -14 23 c-53 80 -223 342
-376 577 -99 151 -177 280 -173 286 3 7 105 114 226 240 121 125 227 235 235
244 8 9 28 31 44 48 l30 32 -206 0 -206 0 -265 -287 c-145 -159 -274 -297
-286 -307 l-21 -19 0 306 0 307 -155 0 -155 0 0 -725z"/>
</g>
</svg>
